<mxfile host="app.diagrams.net" modified="2024-04-12T10:48:29.139Z" agent="Mozilla/5.0 (Windows NT 10.0; Win64; x64) AppleWebKit/537.36 (KHTML, like Gecko) Chrome/123.0.0.0 Safari/537.36 Edg/123.0.0.0" etag="SaKZuS5tNIMsCtKnQ627" version="24.2.3" type="github">
  <diagram name="Page-1" id="e7e014a7-5840-1c2e-5031-d8a46d1fe8dd">
    <mxGraphModel dx="848" dy="653" grid="1" gridSize="10" guides="1" tooltips="1" connect="1" arrows="1" fold="1" page="1" pageScale="1" pageWidth="1169" pageHeight="826" background="none" math="0" shadow="0">
      <root>
        <mxCell id="0" />
        <mxCell id="1" parent="0" />
        <mxCell id="2" value="Pasos" style="swimlane;whiteSpace=wrap" parent="1" vertex="1">
          <mxGeometry x="150" y="60" width="685" height="570" as="geometry" />
        </mxCell>
        <mxCell id="7" value="Se le pide la tarjeta de crédito&#xa;" style="" parent="2" vertex="1">
          <mxGeometry x="155" y="150" width="180" height="50" as="geometry" />
        </mxCell>
        <mxCell id="BGOaHPRjW6HbPEHtvm_S-56" style="edgeStyle=orthogonalEdgeStyle;rounded=0;orthogonalLoop=1;jettySize=auto;html=1;entryX=0;entryY=0.5;entryDx=0;entryDy=0;" edge="1" parent="2" source="8" target="BGOaHPRjW6HbPEHtvm_S-52">
          <mxGeometry relative="1" as="geometry">
            <mxPoint x="335" y="260" as="targetPoint" />
          </mxGeometry>
        </mxCell>
        <mxCell id="8" value="Se verifica que sea&#xa;válida" style="" parent="2" vertex="1">
          <mxGeometry x="185" y="290" width="110" height="50" as="geometry" />
        </mxCell>
        <mxCell id="9" value="" style="endArrow=open;strokeColor=#FF0000;endFill=1;rounded=0" parent="2" source="7" target="8" edge="1">
          <mxGeometry relative="1" as="geometry" />
        </mxCell>
        <mxCell id="10" value="printf(La tarjeta de &#xa;crédito que sea)" style="" parent="2" vertex="1">
          <mxGeometry x="135" y="470" width="110" height="50" as="geometry" />
        </mxCell>
        <mxCell id="11" value="" style="endArrow=open;strokeColor=#FF0000;endFill=1;rounded=0" parent="2" source="8" target="10" edge="1">
          <mxGeometry relative="1" as="geometry" />
        </mxCell>
        <mxCell id="BGOaHPRjW6HbPEHtvm_S-51" value="" style="edgeStyle=orthogonalEdgeStyle;rounded=0;orthogonalLoop=1;jettySize=auto;html=1;" edge="1" parent="2" target="7">
          <mxGeometry relative="1" as="geometry">
            <mxPoint x="187.5" y="90" as="sourcePoint" />
          </mxGeometry>
        </mxCell>
        <mxCell id="20" value="" style="endArrow=open;strokeColor=#FF0000;endFill=1;rounded=0;exitX=0;exitY=0.25;exitDx=0;exitDy=0;" parent="2" source="10" edge="1">
          <mxGeometry relative="1" as="geometry">
            <mxPoint x="69" y="470" as="sourcePoint" />
            <mxPoint x="81" y="370" as="targetPoint" />
          </mxGeometry>
        </mxCell>
        <mxCell id="BGOaHPRjW6HbPEHtvm_S-60" style="edgeStyle=orthogonalEdgeStyle;rounded=0;orthogonalLoop=1;jettySize=auto;html=1;exitX=0.25;exitY=1;exitDx=0;exitDy=0;entryX=0.5;entryY=0;entryDx=0;entryDy=0;" edge="1" parent="2" source="BGOaHPRjW6HbPEHtvm_S-52" target="BGOaHPRjW6HbPEHtvm_S-59">
          <mxGeometry relative="1" as="geometry" />
        </mxCell>
        <mxCell id="BGOaHPRjW6HbPEHtvm_S-52" value="En caso de que no, dos casos:" style="rounded=0;whiteSpace=wrap;html=1;" vertex="1" parent="2">
          <mxGeometry x="480" y="230" width="120" height="60" as="geometry" />
        </mxCell>
        <mxCell id="BGOaHPRjW6HbPEHtvm_S-65" style="edgeStyle=orthogonalEdgeStyle;rounded=0;orthogonalLoop=1;jettySize=auto;html=1;exitX=0.5;exitY=1;exitDx=0;exitDy=0;entryX=0.5;entryY=0;entryDx=0;entryDy=0;" edge="1" parent="2" source="BGOaHPRjW6HbPEHtvm_S-53" target="BGOaHPRjW6HbPEHtvm_S-63">
          <mxGeometry relative="1" as="geometry" />
        </mxCell>
        <mxCell id="BGOaHPRjW6HbPEHtvm_S-53" value="Si no es válida" style="rounded=0;whiteSpace=wrap;html=1;" vertex="1" parent="2">
          <mxGeometry x="540" y="340" width="120" height="60" as="geometry" />
        </mxCell>
        <mxCell id="BGOaHPRjW6HbPEHtvm_S-54" value="Programa inicia" style="ellipse;whiteSpace=wrap;html=1;" vertex="1" parent="2">
          <mxGeometry x="130" y="30" width="120" height="80" as="geometry" />
        </mxCell>
        <mxCell id="BGOaHPRjW6HbPEHtvm_S-55" value="Programa finaliza" style="ellipse;whiteSpace=wrap;html=1;" vertex="1" parent="2">
          <mxGeometry x="15" y="290" width="120" height="80" as="geometry" />
        </mxCell>
        <mxCell id="BGOaHPRjW6HbPEHtvm_S-57" style="edgeStyle=orthogonalEdgeStyle;rounded=0;orthogonalLoop=1;jettySize=auto;html=1;exitX=0.5;exitY=1;exitDx=0;exitDy=0;entryX=0.373;entryY=-0.083;entryDx=0;entryDy=0;entryPerimeter=0;" edge="1" parent="2" source="BGOaHPRjW6HbPEHtvm_S-52" target="BGOaHPRjW6HbPEHtvm_S-53">
          <mxGeometry relative="1" as="geometry" />
        </mxCell>
        <mxCell id="BGOaHPRjW6HbPEHtvm_S-64" style="edgeStyle=orthogonalEdgeStyle;rounded=0;orthogonalLoop=1;jettySize=auto;html=1;exitX=0.5;exitY=1;exitDx=0;exitDy=0;entryX=0.5;entryY=0;entryDx=0;entryDy=0;" edge="1" parent="2" source="BGOaHPRjW6HbPEHtvm_S-59" target="BGOaHPRjW6HbPEHtvm_S-62">
          <mxGeometry relative="1" as="geometry" />
        </mxCell>
        <mxCell id="BGOaHPRjW6HbPEHtvm_S-59" value="Se escriban guiones, letras o ceros a la izquierda" style="rounded=0;whiteSpace=wrap;html=1;" vertex="1" parent="2">
          <mxGeometry x="390" y="340" width="120" height="60" as="geometry" />
        </mxCell>
        <mxCell id="BGOaHPRjW6HbPEHtvm_S-62" value="Vuelta a empezar: pedir credit card number" style="rounded=0;whiteSpace=wrap;html=1;" vertex="1" parent="2">
          <mxGeometry x="390" y="470" width="120" height="60" as="geometry" />
        </mxCell>
        <mxCell id="BGOaHPRjW6HbPEHtvm_S-63" value="printf(&quot;INVALID&quot;)" style="rounded=0;whiteSpace=wrap;html=1;" vertex="1" parent="2">
          <mxGeometry x="540" y="470" width="120" height="60" as="geometry" />
        </mxCell>
      </root>
    </mxGraphModel>
  </diagram>
</mxfile>
